<?xml version="1.0" standalone="no"?><!DOCTYPE svg PUBLIC "-//W3C//DTD SVG 1.1//EN" "http://www.w3.org/Graphics/SVG/1.1/DTD/svg11.dtd"><svg t="1583139239470" class="icon" viewBox="0 0 1024 1024" version="1.1" xmlns="http://www.w3.org/2000/svg" p-id="1208" xmlns:xlink="http://www.w3.org/1999/xlink" width="200" height="200"><defs><style type="text/css"></style></defs><path d="M512 128C299.92 128 128 299.92 128 512s171.92 384 384 384 384-171.92 384-384S724.08 128 512 128z m0 704c-176.448 0-320-143.552-320-320s143.552-320 320-320 320 143.552 320 320-143.552 320-320 320z" p-id="1209"></path><path d="M512 256c-88.224 0-160 71.776-160 160a32 32 0 1 0 64 0c0-52.944 43.056-96 96-96s96 43.056 96 96-43.056 96-96 96a32 32 0 0 0-32 32v64a32 32 0 1 0 64 0v-35.232c72.944-14.864 128-79.52 128-156.768 0-88.224-71.776-160-160-160z" p-id="1210"></path><path d="M512 720m-48 0a48 48 0 1 0 96 0 48 48 0 1 0-96 0Z" p-id="1211"></path></svg>