<?xml version="1.0" standalone="no"?><!DOCTYPE svg PUBLIC "-//W3C//DTD SVG 1.1//EN" "http://www.w3.org/Graphics/SVG/1.1/DTD/svg11.dtd"><svg t="1575257479633" class="icon" viewBox="0 0 1024 1024" version="1.1" xmlns="http://www.w3.org/2000/svg" p-id="2111" xmlns:xlink="http://www.w3.org/1999/xlink" width="200" height="200"><defs><style type="text/css"></style></defs><path d="M813.5 536.1c-13.8 0-25.5 10.6-25.5 23.7L788 960 92 960 92 62l696 0 0 67.4c0 13.1 11.7 23.7 25.5 23.7s25.5-10.6 25.5-23.7L839 36.9c0-13.1-10.9-23.9-24.7-23.9L67.2 13C53.4 13 43 23.8 43 36.9l0 948.7c0 13.1 10.4 24.4 24.2 24.4l747.1 0c13.8 0 24.7-11.3 24.7-24.4L839 559.8C839 546.7 827.3 536.1 813.5 536.1z" p-id="2112"></path><path d="M465.6 685.6M465.6 685.6l146.8-13.3L982.6 304c4.7-4.7 7.5-10.3 7.5-16.9 0-6.6-2.5-12.6-7.2-17.2l-91.7-91.6c-9.3-9.3-25.9-9.2-35.2 0.1L486.2 548.3 465.6 685.6zM583.9 634.2l-65.9 9.4 9.4-65.9 346.3-346.3 56.5 56.5L583.9 634.2z" p-id="2113"></path></svg>