<?xml version="1.0" standalone="no"?><!DOCTYPE svg PUBLIC "-//W3C//DTD SVG 1.1//EN" "http://www.w3.org/Graphics/SVG/1.1/DTD/svg11.dtd"><svg t="1572337170210" class="icon" viewBox="0 0 1024 1024" version="1.1" xmlns="http://www.w3.org/2000/svg" p-id="2377" xmlns:xlink="http://www.w3.org/1999/xlink" width="200" height="200"><defs><style type="text/css"></style></defs><path d="M903.044184 233.110175 692.026166 233.110175c9.596566-16.489556 15.495926-35.408441 15.495926-55.862285 0-61.709457-50.021254-111.730711-111.726617-111.730711-33.562397 0-63.316048 15.105023-83.795475 38.533618-20.481474-23.428595-50.234101-38.533618-83.795475-38.533618-61.70434 0-111.725594 50.02023-111.725594 111.730711 0 20.452821 5.898337 39.372729 15.494902 55.862285L120.956839 233.110175c-30.851659 0-55.862285 25.013697-55.862285 55.864332l0 55.866379c0 30.850635 25.010627 55.862285 55.862285 55.862285l0 446.902376c0 61.709457 50.0233 111.730711 111.727641 111.730711l558.63104 0c61.706387 0 111.728664-50.02023 111.728664-111.730711L903.044184 400.703171c30.851659 0 55.861262-25.01165 55.861262-55.862285L958.905446 288.974507C958.905446 258.123872 933.895843 233.110175 903.044184 233.110175zM595.795475 121.388674c30.851659 0 55.862285 25.007557 55.862285 55.860239 0 30.850635-25.010627 55.862285-55.862285 55.862285-30.852682 0-55.863309-25.01165-55.863309-55.862285C539.932166 146.396231 564.942793 121.388674 595.795475 121.388674zM428.204525 121.388674c30.852682 0 55.864332 25.007557 55.864332 55.860239 0 30.850635-25.01165 55.862285-55.864332 55.862285-30.851659 0-55.863309-25.01165-55.863309-55.862285C372.341217 146.396231 397.352867 121.388674 428.204525 121.388674zM484.068857 903.471926l-251.385401 0c-30.851659 0-55.863309-25.013697-55.863309-55.866379L176.820148 680.013575 484.068857 680.013575 484.068857 903.471926zM484.068857 624.155383 176.821171 624.155383 176.821171 400.703171 484.068857 400.703171 484.068857 624.155383zM847.180875 847.605547c0 30.852682-25.013697 55.866379-55.865355 55.866379L539.932166 903.471926l0-223.459375 307.248709 0L847.180875 847.605547zM847.180875 624.155383 539.932166 624.155383 539.932166 400.703171l307.248709 0L847.180875 624.155383zM875.112018 344.840886 148.889005 344.840886c-15.425318 0-27.932166-12.507872-27.932166-27.936259 0-15.424294 12.506848-27.930119 27.932166-27.930119l726.223013 0c15.425318 0 27.932166 12.505825 27.932166 27.930119C903.044184 332.333014 890.537336 344.840886 875.112018 344.840886z" p-id="2378"></path></svg>