<?xml version="1.0" standalone="no"?><!DOCTYPE svg PUBLIC "-//W3C//DTD SVG 1.1//EN" "http://www.w3.org/Graphics/SVG/1.1/DTD/svg11.dtd"><svg t="1572247468300" class="icon" viewBox="0 0 1024 1024" version="1.1" xmlns="http://www.w3.org/2000/svg" p-id="5063" xmlns:xlink="http://www.w3.org/1999/xlink" width="200" height="200"><defs><style type="text/css"></style></defs><path d="M293.76 500.48C128 500.48 0 430.08 0 337.28V163.2a32 32 0 0 1 32-32 32 32 0 0 1 32 32v174.08C64 384 162.56 436.48 293.76 436.48S523.52 384 523.52 337.28V163.2a32 32 0 0 1 32-32 32 32 0 0 1 32 32v174.08c0 92.8-126.08 163.2-293.76 163.2z" p-id="5064"></path><path d="M293.76 675.2C128 675.2 0 604.8 0 512V337.28a32 32 0 0 1 64 0V512c0 46.72 98.56 99.2 229.76 99.2a402.56 402.56 0 0 0 161.28-30.72 32 32 0 0 1 26.24 58.24 472.96 472.96 0 0 1-187.52 36.48z" p-id="5065"></path><path d="M293.76 849.28C128 849.28 0 779.52 0 686.72V512a32 32 0 0 1 32-32 32 32 0 0 1 32 32v174.72c0 46.72 98.56 98.56 229.76 98.56a412.16 412.16 0 0 0 161.28-30.08 32 32 0 0 1 26.24 58.24 472.96 472.96 0 0 1-187.52 35.84zM293.76 325.76C128 325.76 0 256 0 163.2S128 0 293.76 0s293.76 69.76 293.76 163.2-126.08 162.56-293.76 162.56z m0-261.76C162.56 64 64 116.48 64 163.2s98.56 98.56 229.76 98.56 229.76-51.84 229.76-98.56S425.6 64 293.76 64z" p-id="5066"></path><path d="M730.24 849.28c-167.68 0-293.76-69.76-293.76-162.56V512a32 32 0 0 1 32-32 32 32 0 0 1 32 32v174.72c0 46.72 97.92 98.56 229.76 98.56S960 733.44 960 686.72V512a32 32 0 0 1 64 0v174.72c0 92.8-128 162.56-293.76 162.56z" p-id="5067"></path><path d="M730.24 1024c-167.68 0-293.76-69.76-293.76-163.2v-174.08a32 32 0 0 1 32-32 32 32 0 0 1 32 32v174.08c0 46.72 97.92 99.2 229.76 99.2S960 907.52 960 860.8v-174.08a32 32 0 0 1 64 0v174.08c0 93.44-128 163.2-293.76 163.2z" p-id="5068"></path><path d="M730.24 675.2c-167.68 0-293.76-70.4-293.76-163.2s128-163.2 293.76-163.2S1024 419.2 1024 512s-128 163.2-293.76 163.2z m0-262.4c-131.84 0-229.76 52.48-229.76 99.2s97.92 99.2 229.76 99.2S960 558.72 960 512s-98.56-99.2-229.76-99.2z" p-id="5069"></path></svg>