<?xml version="1.0" standalone="no"?><!DOCTYPE svg PUBLIC "-//W3C//DTD SVG 1.1//EN" "http://www.w3.org/Graphics/SVG/1.1/DTD/svg11.dtd"><svg t="1572233103992" class="icon" viewBox="0 0 1024 1024" version="1.1" xmlns="http://www.w3.org/2000/svg" p-id="4240" xmlns:xlink="http://www.w3.org/1999/xlink" width="200" height="200"><defs><style type="text/css"></style></defs><path d="M252.8 788.48h-1.28c-8.96-0.64-15.36-8.32-14.72-17.28 11.52-131.2 117.76-234.88 252.8-246.4 8.96-0.64 16.64 5.76 17.28 14.72 0.64 8.96-5.76 16.64-14.72 17.28-119.68 10.24-213.12 101.76-223.36 216.96-1.28 8.32-8.32 14.72-16 14.72zM774.4 771.84c-7.68 0-14.08-5.12-16-13.44-10.24-55.04-39.04-105.6-81.28-142.72-6.4-5.76-7.68-16-1.28-22.4 5.76-6.4 16-7.68 22.4-1.28 48 41.6 80.64 98.56 92.16 161.28 1.28 8.96-4.48 17.28-12.8 18.56h-3.2z" fill="" p-id="4241"></path><path d="M515.2 387.84m-170.24 0a170.24 170.24 0 1 0 340.48 0 170.24 170.24 0 1 0-340.48 0Z" fill="" p-id="4242"></path></svg>