<?xml version="1.0" standalone="no"?><!DOCTYPE svg PUBLIC "-//W3C//DTD SVG 1.1//EN" "http://www.w3.org/Graphics/SVG/1.1/DTD/svg11.dtd"><svg t="1572247590810" class="icon" viewBox="0 0 1024 1024" version="1.1" xmlns="http://www.w3.org/2000/svg" p-id="6592" xmlns:xlink="http://www.w3.org/1999/xlink" width="200" height="200"><defs><style type="text/css"></style></defs><path d="M586.592716 196.280832c6.299385 1.899814 11.298897 5.899424 14.398594 11.498877l0.499951 0.799922c3.099697 5.199492 4.19959 11.598867 2.799727 17.298311l-15.098526 59.894151 11.998828 14.398594 31.596914 34.19666 0.399961 0.499951c4.29958 4.499561 6.699346 10.598965 6.699346 17.19832 0 3.599648-0.599941 8.999121-5.399473 15.598477l-44.995606 46.295479 10.798945 46.89542c3.999609 17.19832 21.09794 27.997266 38.39625 23.997656 17.19832-3.999609 27.997266-21.09794 23.997656-38.39625l-2.999707-12.89874 15.798457-16.298408 1.999805-1.299873 2.899717-3.299678c15.398496-17.698272 23.497705-38.596231 23.497705-60.594083 0-23.097744-8.59916-44.895616-24.297627-61.294014l-20.198028-21.897862 6.899326-27.597305 0.09999-0.299971c5.299482-21.697881 1.699834-45.395567-9.799043-64.793672-11.198906-19.798067-29.297139-34.396641-51.195-41.095987l-28.797188-8.999121-7.699248-26.997364-0.19998-0.799922c-6.799336-21.897862-21.897862-40.696026-41.295967-51.594961-19.898057-11.098916-42.895811-14.298604-64.693682-8.999121l-28.997168 6.399375-20.198028-19.598086-0.699932-0.599941c-16.698369-15.398496-38.39625-23.897666-61.094034-23.897666-22.597793 0-44.295674 8.49917-60.994044 23.797676l-22.097842 20.697979-27.197344-6.699346c-20.098037-5.099502-41.995899-2.599746-61.493995 6.999316l-3.099697 1.599844c-19.598086 10.598965-34.896592 29.497119-41.895909 51.794942l-8.799141 28.597207-22.397813 6.799336-0.899912 0-4.499561 1.399863c-21.797871 6.599356-39.996094 21.19793-51.394981 41.195977-11.598867 19.798067-15.098526 42.795821-9.899033 64.593692l6.699346 29.59711-15.898447 16.398399-1.699834 1.199883-2.599746 2.899717C8.449175 307.769944 0.049995 329.567816 0.049995 352.165609c0 22.197832 8.099209 43.095791 23.497705 60.394102l20.797969 22.397813-6.899326 27.597305-0.19998 0.799922c-4.499561 19.998047-1.699834 41.595938 7.699248 60.694073l0.899912 1.899814 1.799824 2.699736c8.49917 14.698565 20.597988 26.297432 35.596524 33.99668l-71.892979 115.288741-0.09999 0.19998c-7.099307 11.498877-9.199102 24.997559-5.999414 37.996289 3.099697 12.69876 10.898936 23.397715 21.997852 30.297041 11.698858 7.499268 26.097451 9.799043 39.596133 6.299385l78.592325-18.298213 18.698174 80.292159c2.899717 12.79875 11.098916 24.197637 22.397813 31.196953 8.099209 4.999512 17.19832 7.599258 26.397422 7.599258 3.899619 0 7.799238-0.499951 11.698858-1.399863l0.899912-0.19998c11.098916-2.999707 21.19793-9.999024 28.397227-19.598086l0.799922-1.099893 80.192169-128.787423c5.599453 1.099893 11.298897 1.599844 17.09833 1.599844 5.799434 0 11.498877-0.499951 16.99834-1.599844l77.192462 124.987794c9.299092 14.998535 28.997168 19.698076 43.995704 10.398984 14.998535-9.299092 19.698076-28.997168 10.398984-43.995704L392.111708 618.139635l-27.597305 18.398203c-3.299678 2.199785-7.799238 3.399668-12.59877 3.399668-4.899522 0-9.299092-1.199883-12.59877-3.399668L311.819549 618.239625l-93.090909 149.385412-25.5975-110.089249-109.689288 25.5975 96.790548-155.184845-62.793868-19.998047c-6.699346-2.099795-11.498877-5.899424-14.698565-11.598867l-0.599941-1.099893-0.599941-0.999902c-1.799824-4.19959-3.299678-10.099014-1.899814-16.598379l14.798555-59.094229L103.039938 404.060541l-31.796895-34.19666c-4.799531-5.499463-7.199297-11.298897-7.199297-17.698272 0-5.699443 1.799824-11.198906 5.199492-15.898447l0.19998-0.09999 48.695245-50.395079-8.999121-17.598281-9.399082-41.595938-0.09999-0.499951c-1.399863-5.699443-0.399961-11.998828 2.899717-17.498291l0.299971-0.499951c2.699736-4.699541 6.499365-8.29919 11.098916-10.498975l63.69378-19.198125 18.698174-60.994044c1.999805-6.499365 6.099404-11.798848 11.298897-14.598574l1.199883-0.699932c4.19959-1.999805 10.498975-3.899619 17.09833-2.199785l59.994141 14.898545 14.498584-11.998828 33.89669-31.796895c4.999512-4.499561 11.098916-6.899326 17.698272-6.899326 6.299385 0 12.69876 2.399766 17.498291 6.699346l44.495655 43.395762 63.093838-13.998633 0.799922-0.19998c6.199395-1.599844 12.398789-0.699932 18.298213 2.599746 4.999512 2.799727 9.299092 8.29919 11.298897 14.498584l16.99834 59.894151 61.893956 19.298115L586.592716 196.280832z" p-id="6593"></path><path d="M352.015623 212.979201c-77.892393 0-140.986232 63.093838-140.986232 140.986232s63.093838 140.986232 140.986232 140.986232 140.986232-63.093838 140.986232-140.986232S429.908017 212.979201 352.015623 212.979201zM352.015623 431.057905c-42.49585 0-76.992481-34.496631-76.992481-76.992481s34.496631-76.992481 76.992481-76.992481c42.49585 0 76.992481 34.496631 76.992481 76.992481S394.511473 431.057905 352.015623 431.057905z" p-id="6594"></path><path d="M1009.951372 657.835758l-131.387169-131.68714c-8.999121-9.099111-21.29792-14.198613-34.19666-14.198613L629.988478 511.950005c-29.79709 0-53.994727 24.097647-53.994727 53.794747L575.993751 968.205449c0 29.6971 24.197637 53.794747 53.994727 53.794747l339.9668 0c29.79709 0 53.994727-24.097647 53.994727-53.794747L1023.950005 691.632458C1023.950005 679.033688 1018.950493 666.834879 1009.951372 657.835758zM959.956254 958.006445l-319.968753 0 0-381.962699 197.880676 0L959.956254 698.331804 959.956254 958.006445z" p-id="6595"></path><path d="M691.682453 704.031247l91.891026 0c17.698272 0 31.996875-14.298604 31.996875-31.996875s-14.298604-31.996875-31.996875-31.996875l-91.891026 0c-17.698272 0-31.996875 14.298604-31.996875 31.996875S673.984181 704.031247 691.682453 704.031247z" p-id="6596"></path><path d="M659.685578 768.024998c0 17.698272 14.298604 31.996875 31.996875 31.996875l206.879797 0c17.698272 0 31.996875-14.298604 31.996875-31.996875s-14.298604-31.996875-31.996875-31.996875l-206.879797 0C673.984181 736.028122 659.685578 750.326726 659.685578 768.024998z" p-id="6597"></path><path d="M898.56225 832.018748l-206.879797 0c-17.698272 0-31.996875 14.298604-31.996875 31.996875s14.298604 31.996875 31.996875 31.996875l206.879797 0c17.698272 0 31.996875-14.298604 31.996875-31.996875S916.160531 832.018748 898.56225 832.018748z" p-id="6598"></path></svg>