<?xml version="1.0" standalone="no"?><!DOCTYPE svg PUBLIC "-//W3C//DTD SVG 1.1//EN" "http://www.w3.org/Graphics/SVG/1.1/DTD/svg11.dtd"><svg t="1571643824705" class="icon" viewBox="0 0 1024 1024" version="1.1" xmlns="http://www.w3.org/2000/svg" p-id="2058" xmlns:xlink="http://www.w3.org/1999/xlink" width="200" height="200"><defs><style type="text/css"></style></defs><path d="M303.9 356.6h414.5c28.6 0 51.8-23.2 51.8-51.8V149.3c0-28.6-23.2-51.8-51.8-51.8H303.9c-28.6 0-51.8 23.2-51.8 51.8v155.4c0 28.7 23.2 51.9 51.8 51.9zM291.8 680.4H149.3c-28.6 0-51.8 23.2-51.8 51.8v142.5c0 28.6 23.2 51.8 51.8 51.8h142.5c28.6 0 51.8-23.2 51.8-51.8V732.2c0-28.6-23.2-51.8-51.8-51.8zM583.2 680.4H440.8c-28.6 0-51.8 23.2-51.8 51.8v142.5c0 28.6 23.2 51.8 51.8 51.8h142.5c28.6 0 51.8-23.2 51.8-51.8V732.2c0-28.6-23.2-51.8-51.9-51.8zM874.7 680.4H732.2c-28.6 0-51.8 23.2-51.8 51.8v142.5c0 28.6 23.2 51.8 51.8 51.8h142.5c28.6 0 51.8-23.2 51.8-51.8V732.2c0-28.6-23.2-51.8-51.8-51.8zM219 635.6c10.7 0 19.4-8.7 19.4-19.4V505.5h254.2v110.1c0 10.7 8.7 19.4 19.4 19.4s19.4-8.7 19.4-19.4V505.5h254.2v110.1c0 10.7 8.7 19.4 19.4 19.4s19.4-8.7 19.4-19.4V486.1c0-10.7-8.7-19.4-19.4-19.4H531.4v-58.3c0-10.7-8.7-19.4-19.4-19.4s-19.4 8.7-19.4 19.4v58.3H219c-10.7 0-19.4 8.7-19.4 19.4v130.1c-0.1 10.7 8.6 19.4 19.4 19.4z" p-id="2059"></path></svg>