<?xml version="1.0" standalone="no"?><!DOCTYPE svg PUBLIC "-//W3C//DTD SVG 1.1//EN" "http://www.w3.org/Graphics/SVG/1.1/DTD/svg11.dtd"><svg t="1576570785073" class="icon" viewBox="0 0 1024 1024" version="1.1" xmlns="http://www.w3.org/2000/svg" p-id="4020" xmlns:xlink="http://www.w3.org/1999/xlink" width="200" height="200"><defs><style type="text/css"></style></defs><path d="M540.3 633.7l-0.7 6.9c0 0.7-0.1 1.5-0.1 2.3h-0.1l-3.4-7-3 1.4 7.6 15.4 3-1.6-2.6-5.2 0.4-2.1 6.9 5.1 3.3-1.7-9.3-6.4 1.4-8.9-3.4 1.8zM557.5 645.6c2.6-0.8 4.9-3.4 3.4-8-1.2-3.6-4-5.3-7.4-4.4-3.2 1.1-4.9 4-3.6 8 1.3 3.9 4.4 5.4 7.6 4.4z m-3.2-10c1.7-0.5 3 1.2 3.6 3.1 0.6 2.1 0.4 4.2-1.1 4.6-1.5 0.5-2.9-1-3.6-3.1-0.6-1.8-0.7-4 1.1-4.6zM517.4 648.1l7 16.4 2.5-2.1-1.9-4.3 3.6-2.9 3.8 2.7 2.7-2.1-14.5-10.3-3.2 2.6z m6.2 3.2l3.2 2.4-2.9 2.3-1.7-3.8c-0.5-1-1.1-2.3-1.5-3.2 0.8 0.7 1.9 1.5 2.9 2.3zM568.6 632.8c0.4 0 0.6-0.1 0.8-0.1l-0.6-3.1c-0.2 0-0.5 0-0.7 0.1-1.2 0.2-2.3 1.3-2.6 3h-0.1l-0.5-2-2.7 0.5c0.2 1.1 0.6 2.3 0.8 3.8l1.6 8.3 3.2-0.6-1.2-6.3c-0.4-2 0.5-3.3 2-3.6zM498.5 787.3c1-0.6 1.9-1.2 3.2-1.9l7.6-4.2-1.6-2.8-6.4 3.6c-1.7 1-2.9 0.1-3.3-0.6-0.7-1.2 0.1-2.3 1.4-3l6.3-3.4-1.5-2.9-6.7 3.7c-3.1 1.7-3.6 4-2.4 5.9 0.8 1.5 2.4 2.1 3.4 2.1l-1.4 1 1.4 2.5zM512.4 795.8c3.2-2.5 3.6-5.7 1.5-8.4-1.7-2.1-5-3.4-8.7-0.6-3 2.3-3.7 5.6-1.5 8.3 2 2.6 5.4 3.1 8.7 0.7z m-5.1-6.5c1.8-1.3 3.7-1.8 4.8-0.6 1 1.3 0 3.1-1.8 4.4-1.4 1.1-3.6 1.9-4.6 0.5-1.1-1.3 0.1-3.1 1.6-4.3zM507.6 662.5l-1.7-2.1c-0.8 0.4-1.9 1.1-2.9 2.4-2.3 3-1.9 6.1 0.2 7.7 1.8 1.2 4 0.8 6.5-0.5 1.8-1 3-1.2 3.9-0.5 1 0.8 1.1 2.1 0 3.6-0.8 1.1-2.1 1.9-3.1 2.4l1.8 2.3c0.8-0.4 2.3-1.4 3.3-2.7 2.5-3.1 2.1-6.3-0.1-8.1-1.8-1.4-3.8-1.4-6.4 0-2.1 1.1-3 1.4-4 0.6-0.8-0.6-1-1.8 0-3.1 0.8-1.1 1.8-1.7 2.5-2zM508.9 656.3l12.1 11.8 2.4-2.2-12.3-12zM493.1 678.2l12.5 12.7 1.5-3-3.3-3.2 2.3-4 4.5 1.2 1.7-3-17.2-4.3-2 3.6z m3.2-0.6c1.1 0.4 2.4 0.7 3.4 1.1l3.9 1.1-1.8 3.2-2.9-2.9c-0.7-0.7-1.9-1.7-2.6-2.5zM580.8 675.6l-12.6 38.8h-40.8l33.1 24-12.6 38.6 32.9-23.9 33 23.9-12.6-38.6 32.9-24h-40.7zM510 807.2c0.7-0.7 0.7-1.8 0-2.5-0.8-0.7-1.7-0.7-2.5 0-0.7 0.7-0.7 1.8 0 2.5s1.8 0.7 2.5 0zM532 826c1 0.5 1.9 0.2 2.4-0.7 0.5-0.8 0.2-1.9-0.7-2.4-0.8-0.5-1.8-0.3-2.4 0.7-0.5 1-0.2 1.9 0.7 2.4zM632.8 804.7l-2.7 2.1 14.5 10.3 3.2-2.6-7-16.4-2.5 2.1 1.9 4.3-3.6 2.9-3.8-2.7z m8.5 2l1.7 3.7c0.5 1 1.1 2.3 1.5 3.2v0.1c-0.8-0.7-1.9-1.5-2.9-2.3l-3.2-2.4 2.9-2.3zM624.7 828.8l0.7-6.8c0-0.7 0.1-1.4 0.1-2.3h0.1l3.4 7 3-1.4-7.6-15.4-2.8 1.5 2.6 5.2-0.4 2.1-6.9-5.1-3.3 1.7 9.1 6.4-1.4 8.9 3.4-1.8zM564 823.3c0.6-2.1-0.2-4.1-2.5-4.7-1.3-0.4-2.6-0.1-3.6 0.6l0.1-1.3-2.9-0.7c0 0.7-0.2 1.8-0.6 2.9l-1.2 4.4c-0.7 2.6-0.4 5.2 3.3 6.3 1.9 0.5 3.4 0.4 4.4 0.1v-2.3c-1 0.2-2 0.4-3.2 0-1.7-0.5-1.9-1.4-1.5-2.6 3.8 1 6.9 0.4 7.7-2.7z m-6.6-1.2c0.4-1.5 1.8-1.8 2.6-1.5s1.3 1 1.1 2c-0.6 1.8-2.6 1.7-4.2 1.2l0.5-1.7zM641.8 796.8l12.3 12 2.4-2.4-12.4-12zM607.7 817c-2.6 0.8-5 3.4-3.6 8 1.2 3.6 4 5.3 7.4 4.3 3.2-1.1 4.9-4 3.6-8-1.2-3.8-4.1-5.2-7.4-4.3z m3.3 10c-1.5 0.5-2.9-1.2-3.4-3.1-0.7-2.1-0.5-4.2 1.1-4.6 1.5-0.5 2.9 1 3.6 3.1 0.3 1.9 0.3 4-1.3 4.6zM649.6 787.5c-2.5 3.2-2.1 6.3 0.2 8.2 1.8 1.4 3.8 1.4 6.4 0 2-1.1 3.1-1.4 4-0.6 0.7 0.6 1 1.8 0 3.2-0.8 1.1-1.9 1.7-2.5 1.9l1.7 2.3c0.8-0.4 1.9-1.1 2.9-2.4 2.3-2.9 2-5.9-0.2-7.7-1.8-1.4-4.1-1.2-6.6 0.3-1.8 1-3 1.2-3.9 0.4-1-0.8-1.1-2.1 0-3.6 0.8-1.1 2.1-1.9 3.1-2.4l-1.8-2.3c-0.8 0.4-2.3 1.4-3.3 2.7zM654.6 780.9l-1.7 3 17.3 4.3 2-3.6-12.4-12.7-1.7 3 3.3 3.2-2.3 4-4.5-1.2z m8.8-1.4l2.9 2.9c0.7 0.8 1.8 1.7 2.6 2.5-1.1-0.4-2.4-0.7-3.4-1.1l-3.9-1.1 1.8-3.2zM581 825c0.1-2-1.2-3.8-3.4-4.1-1.3-0.1-2.6 0.4-3.3 1.3l-0.2-1.3-3-0.2c0.1 0.7 0 1.9 0 3l-0.4 4.5c-0.2 2.7 0.7 5.2 4.5 5.5 1.9 0.1 3.4-0.4 4.3-0.7l-0.5-2.1c-0.8 0.5-1.9 0.7-3.1 0.6-1.8-0.1-2.1-1.1-2-2.3 3.9 0.2 6.9-1 7.1-4.2z m-7 0.2c0.1-1.5 1.4-2 2.3-2 0.8 0 1.5 0.6 1.4 1.8-0.1 1.8-2 2.1-3.8 2l0.1-1.8zM542 811.4l-2.9-1.5-6 10.8 2.9 1.6zM596.6 829.8c-0.4 0-0.6 0.1-0.8 0.1l0.6 3.1c0.2 0 0.5 0 0.7-0.1 1.2-0.2 2.3-1.3 2.6-3h0.1l0.6 2.1 2.7-0.5c-0.2-1.1-0.5-2.3-0.8-3.8l-1.7-8.4-3.2 0.6 1.2 6.3c0.4 2-0.5 3.2-2 3.6zM521.2 796.1l-2.2-2.4-9 8.6 2.3 2.5zM524.1 798.6c-0.7-0.6-1.4-1.1-1.8-1.3l-1.7 1.9c0.2 0.1 0.5 0.4 0.8 0.6 0.8 0.7 0.7 1.4-0.2 2.6l-3.6 4-2-1.8-1.7 1.8 2 1.8-2.1 2.5 3.1 1.4 1.4-1.7 1.2 1.1 1.5-1.8-1.2-1.1 4.1-4.3c1-1.1 3-3.3 0.2-5.7zM582.7 828c0.2 4 2.4 5.9 5.3 5.8 3.7-0.2 5.5-3.4 5.2-7-0.2-3.8-2.6-6.1-6.4-5.9-1.5 0.1-3 0.5-3.9 1l0.6 2.3c0.8-0.4 1.8-0.6 3-0.7 1.8-0.1 3.3 0.6 3.6 2.7l-7.4 0.5c-0.1 0.4-0.1 0.8 0 1.3z m7.3 0.5c0.2 1.1-0.3 2.8-2 2.9-1.7 0.1-2.3-1.4-2.4-2.7l4.4-0.2zM545.7 826.8l3.2 1.3 1-13.1-3-1.2-8.7 9.9 3.2 1.3 3.8-5c0.6-1 1.3-1.8 1.9-2.6-0.2 1.1-0.5 2.1-0.6 3.2l-0.8 6.2zM535.3 811.8c1.2-1.7 1-3.8-1-5.1-1.1-0.8-2.5-1-3.6-0.6l0.6-1.2-2.5-1.8c-0.4 0.7-0.8 1.7-1.5 2.5l-2.6 3.7c-1.5 2.3-2 4.9 1.1 7 1.5 1.1 3.1 1.5 4.2 1.5l0.7-2.1c-1 0-2-0.4-3-1.1-1.5-0.8-1.4-1.9-0.6-2.8 3.2 2.3 6.4 2.6 8.2 0z m-6.1-3.3c0.8-1.3 2.3-1.1 3-0.6s1 1.3 0.2 2.3c-1 1.5-2.7 0.8-4.3-0.2l1.1-1.5zM749.8 189.3H499.1c-6.6 0-11.8 5.3-11.8 11.8 0 6.6 5.3 11.8 11.8 11.8h250.6c6.6 0 11.9-5.2 11.9-11.8 0-6.6-5.3-11.8-11.8-11.8zM749.8 285.8H499.1c-6.6 0-11.8 5.3-11.8 11.8s5.3 11.8 11.8 11.8h250.6c6.6 0 11.9-5.3 11.9-11.8 0-6.6-5.3-11.8-11.8-11.8zM761.6 394c0-6.5-5.3-11.8-11.8-11.8H499.1c-6.6 0-11.8 5.3-11.8 11.8 0 6.6 5.3 11.8 11.8 11.8h250.6c6.6 0 11.9-5.4 11.9-11.8z" p-id="4021"></path><path d="M812.1 904.8c0 9-7.6 16.6-16.6 16.6h-67.1C554.6 921.5 228.2 784 228.2 784c-58.3 72.5-127.7 48.2-127.7 11.3V119.2c0-9 7.6-16.6 16.6-16.6h678.4c9 0 16.6 7.6 16.6 16.6l-1 392.8c16.6-45.7 37.5-55.3 37.5-55.3V119.2c0-29.2-23.9-53.1-53.1-53.1H117.1C87.9 66 64 89.9 64 119.2v785.7c0 29.2 23.9 53.1 53.1 53.1h678.4c29.2 0 53.1-23.9 53.1-53.1V768.7l-36.5 41.8v94.3z" p-id="4022"></path><path d="M186.2 158.7c-19.4 0-35.2 15.8-35.2 35.2v207.3c0 19.4 15.8 35.2 35.2 35.2h202c19.4 0 35.2-15.8 35.2-35.2V193.9c-0.1-19.4-15.9-35.2-35.2-35.2h-202z m-5 248.7c11.8-46.5 46.6-66.7 61.9-73.7-20.2-12.1-33.7-34.2-33.7-59.5 0.1-38.3 31.3-69.2 69.4-69 38.3 0.1 69.2 31.1 69 69.4 0 25.3-13.7 47.4-34 59.4 15.3 7.1 51.3 26.5 62.6 73.4H181.2zM797.1 803.6l30.9-33.3c8.1-8.7 7.6-22.5-1.1-30.5L658.8 583.5c-8.8-8.2-22.5-7.6-30.5 1.1l-30.9 33.2c-8.1 8.8-7.6 22.5 1.1 30.5l168.1 156.4c8.8 8.1 22.5 7.6 30.5-1.1zM724.9 580.8c-5.2-4.9-13.3-4.5-18.1 0.6L690 599.5l118.6 110.3 16.8-18c4.8-5.2 4.5-13.3-0.7-18.2l-99.8-92.8zM943.9 448.3c-20.2-18.8-44.8-25.2-90.9 24.5-32 34.5-49.2 91.9-77.4 122.3l-18.3-17c-4.5-4.3-10.9-4.8-14.4-1.1-3.3 3.7-2.4 10 2.1 14.3l70.8 65.8c4.6 4.3 11.1 4.8 14.4 1.1 3.4-3.7 2.4-10-2.1-14.3l-18.3-17c28.3-30.4 84.4-51.7 116.3-86.1 46.1-49.6 38-73.7 17.8-92.5z" p-id="4023"></path><path d="M443.5 731.5c0 75.7 61.6 137.2 137.4 137.2 57.3 0 106.5-35.4 127-85.4l-14-13.1c-16.2 46.9-60.7 80.8-113 80.8-65.9 0-119.7-53.7-119.7-119.7 0-63.1 49.2-114.8 111.2-119.2 1.9-3.8 4.2-7.5 7.2-10.8l6.5-7c-1.8-0.1-3.4-0.2-5.2-0.2-75.7 0-137.4 61.6-137.4 137.4z" p-id="4024"></path></svg>