<?xml version="1.0" standalone="no"?><!DOCTYPE svg PUBLIC "-//W3C//DTD SVG 1.1//EN" "http://www.w3.org/Graphics/SVG/1.1/DTD/svg11.dtd"><svg t="1575357317264" class="icon" viewBox="0 0 1024 1024" version="1.1" xmlns="http://www.w3.org/2000/svg" p-id="2599" xmlns:xlink="http://www.w3.org/1999/xlink" width="200" height="200"><defs><style type="text/css"></style></defs><path d="M450.799638 388.843052 593.625554 502.996952 777.29469 344.82963 623.386368 344.82963 623.386368 288.938692 807.573297 288.938692 847.087243 288.938692 874.891496 288.938692 874.891496 540.443819 819.002604 540.443819 819.002604 386.242831 597.844645 577.890686 460.916043 468.485951 279.703865 647.52872 234.99357 603.706655 450.799638 388.843052Z" p-id="2600"></path><path d="M819.390437 847.838861 874.503663 847.838861 874.503663 903.727753 819.390437 903.727753 819.390437 847.838861Z" p-id="2601"></path><path d="M707.610608 847.838861 762.723833 847.838861 762.723833 903.727753 707.610608 903.727753 707.610608 847.838861Z" p-id="2602"></path><path d="M595.830779 847.838861 650.944004 847.838861 650.944004 903.727753 595.830779 903.727753 595.830779 847.838861Z" p-id="2603"></path><path d="M484.050949 847.838861 539.165198 847.838861 539.165198 903.727753 484.050949 903.727753 484.050949 847.838861Z" p-id="2604"></path><path d="M372.27112 847.838861 427.385369 847.838861 427.385369 903.727753 372.27112 903.727753 372.27112 847.838861Z" p-id="2605"></path><path d="M260.492314 847.838861 315.604516 847.838861 315.604516 903.727753 260.492314 903.727753 260.492314 847.838861Z" p-id="2606"></path><path d="M120.406812 149.60225 176.296727 149.60225 176.296727 204.715475 120.406812 204.715475 120.406812 149.60225Z" p-id="2607"></path><path d="M120.406812 261.382079 176.296727 261.382079 176.296727 316.495304 120.406812 316.495304 120.406812 261.382079Z" p-id="2608"></path><path d="M120.406812 373.161908 176.296727 373.161908 176.296727 428.275133 120.406812 428.275133 120.406812 373.161908Z" p-id="2609"></path><path d="M120.406812 484.941738 176.296727 484.941738 176.296727 540.054963 120.406812 540.054963 120.406812 484.941738Z" p-id="2610"></path><path d="M120.406812 596.721567 176.296727 596.721567 176.296727 651.834792 120.406812 651.834792 120.406812 596.721567Z" p-id="2611"></path><path d="M120.406812 708.501396 176.296727 708.501396 176.296727 763.614621 120.406812 763.614621 120.406812 708.501396Z" p-id="2612"></path><path d="M958.726879 959.617667 120.379183 959.617667 64.489268 959.617667 64.489268 903.727753 64.489268 65.379033 119.355877 65.379033 119.355877 905.774365 958.726879 905.774365 958.726879 959.617667Z" p-id="2613"></path></svg>