<?xml version="1.0" standalone="no"?><!DOCTYPE svg PUBLIC "-//W3C//DTD SVG 1.1//EN" "http://www.w3.org/Graphics/SVG/1.1/DTD/svg11.dtd"><svg t="1575258052962" class="icon" viewBox="0 0 1024 1024" version="1.1" xmlns="http://www.w3.org/2000/svg" p-id="3643" xmlns:xlink="http://www.w3.org/1999/xlink" width="200" height="200"><defs><style type="text/css"></style></defs><path d="M277.776 960a35.664 35.664 0 0 1-26.064-10.704 34.336 34.336 0 0 1 0-50.688l288.224-276.304a38.736 38.736 0 0 1 26.064-10.704h351.52V135.392H106.464v477.632H268.8a35.728 35.728 0 1 1 0 71.392H69.2a36.144 36.144 0 0 1-37.232-35.696V99.696A36.144 36.144 0 0 1 69.2 64H954.72a36.144 36.144 0 0 1 37.232 35.696v549.024a36.144 36.144 0 0 1-37.232 35.696H580.848l-277.056 265.6a38.096 38.096 0 0 1-26.016 9.984z" p-id="3644"></path><path d="M295.504 457.968a36.576 36.576 0 0 1-36.944-36.944v-102.688a36.944 36.944 0 0 1 73.888 0v102.688a37.04 37.04 0 0 1-36.944 36.944z" p-id="3645"></path><path d="M525.792 457.968a36.576 36.576 0 0 1-36.944-36.944v-102.688a36.944 36.944 0 0 1 73.888 0v102.688a36.576 36.576 0 0 1-36.944 36.944z" p-id="3646"></path><path d="M747.136 457.968a36.576 36.576 0 0 1-36.944-36.944v-102.688a36.944 36.944 0 1 1 73.888 0v102.688a36.576 36.576 0 0 1-36.944 36.944z" p-id="3647"></path></svg>